<svg width="20" height="20" viewBox="0 0 20 20" fill="none" xmlns="http://www.w3.org/2000/svg">
<path d="M16.6999 5.68373L11.8999 2.3254C10.5915 1.40873 8.5832 1.45873 7.32487 2.43373L3.14987 5.69206C2.31654 6.34206 1.6582 7.6754 1.6582 8.7254V14.4754C1.6582 16.6004 3.3832 18.3337 5.5082 18.3337H14.4915C16.6165 18.3337 18.3415 16.6087 18.3415 14.4837V8.83373C18.3415 7.70873 17.6165 6.3254 16.6999 5.68373ZM10.6249 15.0004C10.6249 15.3421 10.3415 15.6254 9.99987 15.6254C9.6582 15.6254 9.37487 15.3421 9.37487 15.0004V12.5004C9.37487 12.1587 9.6582 11.8754 9.99987 11.8754C10.3415 11.8754 10.6249 12.1587 10.6249 12.5004V15.0004Z" fill="#147341"/>
</svg>
