<svg width="20" height="20" viewBox="0 0 20 20" fill="none" xmlns="http://www.w3.org/2000/svg">
<path d="M14.167 1.66699H5.83366C3.53366 1.66699 1.66699 3.52533 1.66699 5.81699V10.8003V11.6337C1.66699 13.9253 3.53366 15.7837 5.83366 15.7837H7.08366C7.30866 15.7837 7.60866 15.9337 7.75033 16.117L9.00033 17.7753C9.55033 18.5087 10.4503 18.5087 11.0003 17.7753L12.2503 16.117C12.4087 15.9087 12.6587 15.7837 12.917 15.7837H14.167C16.467 15.7837 18.3337 13.9253 18.3337 11.6337V5.81699C18.3337 3.52533 16.467 1.66699 14.167 1.66699ZM6.66699 10.0003C6.20033 10.0003 5.83366 9.62533 5.83366 9.16699C5.83366 8.70866 6.20866 8.33366 6.66699 8.33366C7.12533 8.33366 7.50033 8.70866 7.50033 9.16699C7.50033 9.62533 7.13366 10.0003 6.66699 10.0003ZM10.0003 10.0003C9.53366 10.0003 9.16699 9.62533 9.16699 9.16699C9.16699 8.70866 9.54199 8.33366 10.0003 8.33366C10.4587 8.33366 10.8337 8.70866 10.8337 9.16699C10.8337 9.62533 10.467 10.0003 10.0003 10.0003ZM13.3337 10.0003C12.867 10.0003 12.5003 9.62533 12.5003 9.16699C12.5003 8.70866 12.8753 8.33366 13.3337 8.33366C13.792 8.33366 14.167 8.70866 14.167 9.16699C14.167 9.62533 13.8003 10.0003 13.3337 10.0003Z" fill="#989898"/>
</svg>
