<svg width="20" height="20" viewBox="0 0 20 20" fill="none" xmlns="http://www.w3.org/2000/svg">
<path d="M14.167 17.5H5.83366C2.50033 17.5 1.66699 16.6667 1.66699 13.3333V6.66667C1.66699 3.33333 2.50033 2.5 5.83366 2.5H14.167C17.5003 2.5 18.3337 3.33333 18.3337 6.66667V13.3333C18.3337 16.6667 17.5003 17.5 14.167 17.5Z" stroke="#121212" stroke-width="1.5" stroke-linecap="round" stroke-linejoin="round"/>
<path d="M11.667 6.66602H15.8337" stroke="#121212" stroke-width="1.5" stroke-linecap="round" stroke-linejoin="round"/>
<path d="M12.5 10H15.8333" stroke="#121212" stroke-width="1.5" stroke-linecap="round" stroke-linejoin="round"/>
<path d="M14.167 13.334H15.8337" stroke="#121212" stroke-width="1.5" stroke-linecap="round" stroke-linejoin="round"/>
<path d="M7.08353 9.40924C7.91656 9.40924 8.59186 8.73394 8.59186 7.90091C8.59186 7.06788 7.91656 6.39258 7.08353 6.39258C6.2505 6.39258 5.5752 7.06788 5.5752 7.90091C5.5752 8.73394 6.2505 9.40924 7.08353 9.40924Z" stroke="#121212" stroke-width="1.5" stroke-linecap="round" stroke-linejoin="round"/>
<path d="M10.0003 13.6085C9.88366 12.4001 8.92533 11.4501 7.71699 11.3418C7.30033 11.3001 6.87533 11.3001 6.45033 11.3418C5.24199 11.4585 4.28366 12.4001 4.16699 13.6085" stroke="#121212" stroke-width="1.5" stroke-linecap="round" stroke-linejoin="round"/>
</svg>
