<svg width="20" height="20" viewBox="0 0 20 20" fill="none" xmlns="http://www.w3.org/2000/svg">
<path d="M9.99675 10.6243C7.35508 10.6243 5.20508 8.47435 5.20508 5.83268C5.20508 3.19102 7.35508 1.04102 9.99675 1.04102C12.6384 1.04102 14.7884 3.19102 14.7884 5.83268C14.7884 8.47435 12.6384 10.6243 9.99675 10.6243ZM9.99675 2.29102C8.04675 2.29102 6.45508 3.88268 6.45508 5.83268C6.45508 7.78268 8.04675 9.37435 9.99675 9.37435C11.9467 9.37435 13.5384 7.78268 13.5384 5.83268C13.5384 3.88268 11.9467 2.29102 9.99675 2.29102Z" fill="#1E1E1E"/>
<path d="M13.1804 18.9588C12.8637 18.9588 12.5637 18.8421 12.347 18.6254C12.0887 18.3671 11.972 17.9921 12.0304 17.6005L12.1887 16.4755C12.2304 16.1838 12.4054 15.8421 12.6137 15.6255L15.5637 12.6755C16.747 11.4922 17.7887 12.1672 18.297 12.6755C18.7304 13.1088 18.9554 13.5754 18.9554 14.0421C18.9554 14.5171 18.7387 14.9588 18.297 15.4005L15.347 18.3505C15.1387 18.5588 14.7887 18.7338 14.4971 18.7755L13.372 18.9338C13.3054 18.9504 13.247 18.9588 13.1804 18.9588ZM16.922 13.2671C16.772 13.2671 16.6387 13.3672 16.447 13.5588L13.497 16.5088C13.472 16.5338 13.4304 16.6171 13.4304 16.6505L13.2804 17.6921L14.322 17.5421C14.3554 17.5338 14.4387 17.4922 14.4637 17.4672L17.4137 14.5171C17.5471 14.3838 17.7054 14.1921 17.7054 14.0421C17.7054 13.9171 17.6054 13.7422 17.4137 13.5588C17.2137 13.3588 17.0637 13.2671 16.922 13.2671Z" fill="#1E1E1E"/>
<path d="M17.4309 16.0158C17.3726 16.0158 17.3142 16.0075 17.2642 15.9908C16.1642 15.6825 15.2892 14.8075 14.9809 13.7075C14.8892 13.3742 15.0809 13.0325 15.4142 12.9409C15.7476 12.8492 16.0892 13.0408 16.1809 13.3742C16.3726 14.0575 16.9142 14.5992 17.5976 14.7908C17.9309 14.8825 18.1226 15.2325 18.0309 15.5575C17.9559 15.8325 17.7059 16.0158 17.4309 16.0158Z" fill="#1E1E1E"/>
<path d="M2.83887 18.9583C2.4972 18.9583 2.21387 18.675 2.21387 18.3333C2.21387 14.775 5.70556 11.875 9.99722 11.875C10.9056 11.875 11.8055 12.0084 12.6472 12.2584C12.9805 12.3584 13.1639 12.7083 13.0639 13.0333C12.9639 13.3667 12.6139 13.55 12.2889 13.45C11.5556 13.2333 10.7889 13.1167 9.99722 13.1167C6.39722 13.1167 3.46387 15.45 3.46387 18.325C3.46387 18.675 3.18053 18.9583 2.83887 18.9583Z" fill="#1E1E1E"/>
</svg>
